<?xml version="1.0" encoding="utf-8"?>
<!-- Generator: Adobe Illustrator 21.1.0, SVG Export Plug-In . SVG Version: 6.00 Build 0)  -->
<svg version="1.1" id="图层_1" xmlns="http://www.w3.org/2000/svg" xmlns:xlink="http://www.w3.org/1999/xlink" x="0px" y="0px"
	 viewBox="0 0 248.6 136.6" style="enable-background:new 0 0 248.6 136.6;" xml:space="preserve">
<style type="text/css">
	.st0{fill:none;stroke:#FFFFFF;stroke-miterlimit:10;}
	.st1{fill:#FFFFFF;}
</style>
<title>heavy_equipment</title>
<g id="图层_2">
	<g id="Vector_Graphics">
		<path class="st0" d="M109.6,111.8l-0.1-0.1l-1.2-0.1c0.7-2.3,1.1-4.6,1.2-7l0.6-0.3c0.7-0.1,1.2-0.7,1.2-1.5v-6.5
			c0-0.8-0.6-1.4-1.4-1.5h-0.1l-1.1,0.5c-0.6-2.3-1.4-4.5-2.4-6.7l0.4-0.5c0.5-0.5,0.7-1.3,0.3-1.9l-3.2-5.6c-0.4-0.7-1.2-1-1.9-0.6
			l-0.1,0.1l-0.7,1c-1.6-1.7-3.5-3.2-5.4-4.6l0.1-0.7c0.2-0.7,0-1.4-0.7-1.8L89.3,71c-0.7-0.4-1.5-0.3-2,0.4c0,0,0,0,0,0l-0.1,0.1
			l-0.1,1.2c-2.3-0.7-4.6-1.1-7-1.2L79.8,71c-0.1-0.7-0.7-1.1-1.4-1.2h-6.5c-0.8,0-1.4,0.6-1.5,1.4c0,0,0,0,0,0v0.1l0.6,1.1
			c-2.3,0.6-4.5,1.4-6.7,2.4l-0.5-0.4c-0.5-0.5-1.3-0.7-1.9-0.3l-5.6,3.2c-0.4,0.2-0.6,0.5-0.7,0.9c-0.1,0.3,0,0.7,0.1,1l0.1,0.1
			l1,0.7c-1.7,1.6-3.2,3.5-4.6,5.4l-0.7-0.1c-0.3-0.1-0.6-0.1-0.8-0.1c-0.4,0.1-0.7,0.4-0.9,0.7l-3.2,5.6c-0.4,0.7-0.3,1.5,0.4,2
			c0,0,0,0,0,0l0.1,0.1l1.2,0.1c-0.7,2.3-1.1,4.6-1.2,7l-0.6,0.3c-0.7,0.1-1.2,0.7-1.2,1.5v6.5c0,0.4,0.2,0.8,0.4,1.1
			c0.2,0.2,0.6,0.4,0.9,0.4h0.1l1.1-0.5c0.6,2.3,1.4,4.5,2.4,6.7l-0.4,0.6c-0.2,0.2-0.4,0.4-0.4,0.6c0,0.1,0,0.2,0,0.4
			c0,0.3,0.1,0.5,0.2,0.8l3.2,5.6c0.2,0.4,0.5,0.6,0.9,0.7c0.3,0.1,0.7,0.1,1-0.1l0.1-0.1l0.7-1c1.6,1.7,3.4,3.2,5.3,4.5l-0.1,0.6
			c-0.1,0.3-0.1,0.6-0.1,0.8c0.1,0.4,0.4,0.7,0.7,0.9l5.6,3.2c0.3,0.2,0.8,0.3,1.2,0.2c0.3-0.1,0.6-0.3,0.8-0.6l0.1-0.1l0.1-1.2
			c2.3,0.7,4.6,1.1,7,1.2l0.3,0.6c0.1,0.7,0.7,1.2,1.5,1.2h6.5c0.8,0,1.4-0.6,1.5-1.4c0,0,0,0,0,0v-0.1l-0.5-1.1
			c2.3-0.6,4.5-1.4,6.7-2.4l0.6,0.4c0.2,0.2,0.4,0.4,0.6,0.4c0.4,0.1,0.8,0,1.2-0.2l5.6-3.2c0.4-0.2,0.6-0.5,0.7-0.9
			c0.1-0.3,0-0.7-0.1-1l-0.1-0.1l-1-0.7c1.7-1.6,3.3-3.5,4.6-5.4l0.7,0.1c0.3,0.1,0.6,0.1,0.8,0.1c0.4-0.1,0.7-0.4,0.9-0.7l3.2-5.6
			c0.2-0.4,0.3-0.8,0.2-1.2C110.1,112.3,109.9,112,109.6,111.8z M78.3,119.2c-9.1,0-16.5-7.4-16.5-16.4s7.4-16.5,16.4-16.5
			s16.5,7.4,16.5,16.4v0C94.7,111.9,87.3,119.2,78.3,119.2z M78.3,97.9c-2.7,0-4.9,2.2-4.9,4.9s2.2,4.9,4.9,4.9s4.9-2.2,4.9-4.9l0,0
			C83.2,100.1,81,97.9,78.3,97.9C78.3,97.9,78.3,97.9,78.3,97.9L78.3,97.9z M223.9,94.9h-0.1l-1.1,0.5c-0.6-2.3-1.4-4.6-2.5-6.7
			l0.4-0.6c0.6-0.5,0.7-1.3,0.3-1.9l-3.3-5.7c-0.4-0.7-1.2-1-1.9-0.6l-0.1,0.1l-0.7,1c-1.7-1.7-3.5-3.3-5.5-4.6l0.1-0.7
			c0.3-0.7,0-1.4-0.7-1.8l-5.7-3.3c-0.7-0.4-1.6-0.2-2,0.4c0,0,0,0,0,0l-0.1,0.1l-0.1,1.2c-2.3-0.7-4.7-1.1-7.1-1.2l-0.3-0.6
			c-0.1-0.7-0.7-1.2-1.5-1.2h-6.6c-0.8,0-1.5,0.6-1.5,1.4V71l0.5,1.1c-2.3,0.6-4.6,1.4-6.7,2.5l-0.6-0.4c-0.5-0.6-1.3-0.7-1.9-0.3
			l-5.7,3.3c-0.4,0.2-0.6,0.5-0.7,0.9c-0.1,0.3-0.1,0.7,0.1,1l0.1,0.1l1,0.7c-1.7,1.7-3.3,3.5-4.6,5.5l-0.7-0.1
			c-0.3-0.1-0.6-0.1-0.9-0.1c-0.4,0.1-0.7,0.4-0.9,0.7l-3.3,5.7c-0.4,0.7-0.2,1.6,0.4,2c0,0,0,0,0,0l0.1,0.1l1.2,0.1
			c-0.7,2.3-1.1,4.7-1.2,7.1l-0.6,0.3c-0.7,0.1-1.2,0.7-1.2,1.5v6.5c0,0.4,0.2,0.8,0.4,1.1c0.2,0.2,0.6,0.4,0.9,0.4h0.1l1.1-0.5
			c0.6,2.3,1.4,4.6,2.5,6.7l-0.4,0.6c-0.2,0.2-0.4,0.4-0.4,0.7c0,0.1,0,0.3,0,0.4c0,0.3,0.1,0.5,0.2,0.8l3.3,5.7
			c0.2,0.4,0.5,0.6,0.9,0.7c0.3,0.1,0.7,0.1,1-0.1l0.1-0.1l0.7-1c1.6,1.7,3.5,3.3,5.5,4.6l-0.1,0.7c-0.1,0.3-0.1,0.6-0.1,0.9
			c0.1,0.4,0.4,0.7,0.7,0.9l5.7,3.3c0.4,0.2,0.8,0.2,1.1,0.1c0.3-0.1,0.6-0.3,0.8-0.6l0.1-0.1l0.1-1.2c2.3,0.7,4.7,1.1,7.1,1.2
			l0.3,0.6c0.1,0.7,0.7,1.2,1.5,1.2h6.6c0.8,0,1.5-0.6,1.5-1.4v-0.1l-0.5-1.1c2.3-0.6,4.6-1.4,6.7-2.5l0.6,0.4
			c0.2,0.2,0.4,0.4,0.6,0.4c0.4,0.1,0.8,0,1.2-0.2l5.7-3.3c0.4-0.2,0.6-0.5,0.7-0.9c0.1-0.3,0-0.7-0.1-1l-0.1-0.1l-1-0.7
			c1.7-1.7,3.3-3.5,4.6-5.5l0.7,0.1c0.3,0.1,0.6,0.1,0.9,0.1c0.4-0.1,0.7-0.4,0.9-0.7l3.3-5.7c0.2-0.4,0.3-0.8,0.2-1.2
			c-0.1-0.3-0.3-0.6-0.6-0.8l-0.1-0.1l-1.2-0.1c0.7-2.3,1.1-4.7,1.2-7.1l0.6-0.3c0.7-0.1,1.2-0.8,1.2-1.5v-6.5
			C225.3,95.6,224.7,95,223.9,94.9L223.9,94.9z M192,119.4c-9.2,0-16.6-7.4-16.6-16.6s7.4-16.6,16.6-16.6c9.2,0,16.6,7.4,16.6,16.6
			C208.6,112,201.2,119.4,192,119.4z M192,97.9c-2.7,0-4.9,2.2-4.9,4.9c0,2.7,2.2,4.9,4.9,4.9s4.9-2.2,4.9-4.9S194.7,97.9,192,97.9
			C192,97.9,192,97.9,192,97.9z M211.9,57.7c1.7,0.1,3.1-1.2,3.2-2.9l-0.8-28.2c-0.1-1.7-1.5-3-3.2-2.9h-33.5
			c0.3,0.3,0.4,0.7,0.4,1.1l11.2,32.1c0,0.3-0.1,0.6-0.2,0.8L211.9,57.7z M182.3,28h13.9c1.8,0,3.2,1.4,3.2,3.2c0,0,0,0,0,0v19.7
			c0,1.8-1.5,3.1-3.2,3.1h-4.8L182.3,28z M164.2,72.9l0.5-52.6l56.5,0.7c0.5,0,0.9-0.4,0.9-0.9c0,0,0,0,0,0v-3.3
			c0-0.5-0.4-0.9-0.9-0.9c0,0,0,0,0,0l-57.9-3.3h-0.2H159c-0.5,0-0.9,0.4-0.9,0.9c0,0,0,0,0,0v3.4c0,0.1,0,0.1,0,0.2l-10.9,15
			L41.3,41.2c-1.7,0.1-3.1,1.5-3,3.2c0,0,0,0,0,0v12.3c-0.1,1.7,1.3,3.2,3,3.2c0,0,0,0,0,0l120,16.1C163,76,164.3,74.6,164.2,72.9
			C164.2,72.9,164.2,72.9,164.2,72.9z M240.4,62.2c0-1.8-1.4-3.2-3.1-3.2c0,0,0,0,0,0h-69c-0.9,0-1.6,0.7-1.6,1.6c0,0,0,0,0,0V63
			c0,0.9-0.4,8.7,1.6,8.7c0,0,11.5-5.5,16.1-6c3.8-0.4,12.6-0.4,16.6,0.6c3,0.8,8.5,3.7,11.4,5.3c2,1.1,2,2.8,3.8,4.2
			s4.8,1.1,6.5,3.9c2.7,4.6,1.5,7.4,2.6,11c0.6,1.7,1.9,3,3.5,3.8c0.1,2.8,0.4,6.6,2.1,6.6h8.8c1.7,0,3.1-1.5,3.1-3.2L240.4,62.2z
			 M174.6,23.9h-6.4c-0.5,0-0.9,0.6-0.9,1.3v31.2c0,0.7,0.4,1.3,0.9,1.3h17.3c0.5,0,0.9-0.6,0.9-1.3l-11-31.2
			C175.6,24.5,175.1,23.9,174.6,23.9z M150,89.4h-29.5c-0.8,0.1-1.3,0.8-1.2,1.5v18.5c-0.1,0.8,0.5,1.4,1.2,1.5H150
			c0.8-0.1,1.3-0.8,1.2-1.5V90.9C151.3,90.2,150.8,89.5,150,89.4z M129,110.3h-0.5V89.8h0.5V110.3z M141.8,110.3h-0.5V89.8h0.5
			V110.3z M158,94.1L158,94.1h-0.2l-0.2-0.1l-0.1-0.1c-0.6-0.3-1-0.9-1.1-1.5c-0.2-0.7-0.1-1.5,0.3-2.1l3.5-6.1
			c0.4-0.6,1-1.1,1.7-1.3c0.2-0.1,0.4-0.1,0.6-0.1c0.2,0,0.5,0,0.7,0.1c1-1.4,2.1-2.8,3.4-4.1h-2.6l-67.7-8.4l0.7,0.4
			c1.1,0.6,1.6,1.8,1.3,3c1.6,1.1,3.2,2.4,4.6,3.8l0,0l0.1-0.2l0.2-0.1l0.1-0.1c0.4-0.2,0.8-0.3,1.2-0.3c1,0,1.8,0.5,2.3,1.4
			l3.5,6.1c0.6,1.1,0.4,2.4-0.4,3.2c0.9,1.8,1.6,3.7,2.2,5.6h0.1l0.2-0.1h0.4c1.4,0,2.6,1.2,2.6,2.7v7c0,1.2-0.8,2.3-2,2.6
			c-0.1,1-0.2,2-0.4,3h4.5V90.4c-0.1-1.4,1-2.6,2.4-2.7h31.3c1.4,0.1,2.4,1.3,2.4,2.7v18.2h1.8v-6c0-1.2,0.8-2.3,2-2.6
			C157.2,98,157.6,96,158,94.1L158,94.1z"/>
		<line class="st0" x1="89.6" y1="36" x2="125.2" y2="0.3"/>
		<line class="st0" x1="60.2" y1="62" x2="34.9" y2="87.3"/>
		<line class="st0" x1="214.9" y1="45.3" x2="248.2" y2="12"/>
		<line class="st0" x1="107.6" y1="68" x2="129.2" y2="46.3"/>
		<line class="st0" x1="168.2" y1="125.3" x2="157.6" y2="136"/>
		<line class="st0" x1="241.6" y1="74.7" x2="247.9" y2="68.3"/>
		<line class="st0" x1="49.6" y1="118.7" x2="32.9" y2="135.4"/>
		<path class="st1" d="M13,9.9v21.8H7.4v-9.2H5.7v9.2H0V9.9h5.7v7.8h1.7V9.9H13z"/>
		<path class="st1" d="M15.3,9.9h9.5v4.4H21v4.1h3.5v4.1H21v4.8h4.2v4.4h-9.8V9.9z"/>
		<path class="st1" d="M26.8,9.9H31c1.9-0.1,3.7,0.1,5.6,0.4c0.8,0.2,1.6,0.6,2.2,1.2c0.5,0.5,0.8,1.2,0.9,1.9
			c0.2,1.4,0.2,2.8,0.2,4.2v7.6c0.1,1.3,0,2.6-0.3,3.9c-0.2,0.6-0.5,1.2-1,1.5c-0.5,0.4-1.1,0.7-1.7,0.8c-1,0.2-2,0.2-3,0.2h-7.1
			V9.9z M32.5,13.6V28c0.8,0,1.3-0.2,1.5-0.5c0.3-0.9,0.4-1.8,0.3-2.7v-8.5c0-0.6,0-1.3-0.1-1.9c0-0.3-0.2-0.5-0.4-0.6
			C33.3,13.7,32.9,13.6,32.5,13.6L32.5,13.6z"/>
		<path class="st1" d="M55.5,9.9l-3.2,9.9l3.6,12H50l-2.3-9.4v9.4H42V9.9h5.7v8.5l2.5-8.5H55.5z"/>
		<path class="st1" d="M68.4,16.5h-5.3v-1.6c0-0.5,0-1-0.2-1.4c-0.2-0.2-0.4-0.3-0.7-0.3c-0.3,0-0.6,0.1-0.8,0.4
			c-0.2,0.4-0.3,0.8-0.3,1.3c0,0.6,0.1,1.1,0.3,1.6c0.4,0.6,1,1,1.6,1.3c2.5,1.5,4.1,2.7,4.8,3.7c0.8,1.4,1.1,3,1,4.6
			c0.1,1.2-0.1,2.3-0.6,3.4c-0.5,0.8-1.2,1.5-2.1,1.9c-1.1,0.5-2.4,0.8-3.6,0.7c-1.3,0-2.7-0.3-3.9-0.9c-1-0.4-1.7-1.2-2.1-2.2
			c-0.4-1.2-0.5-2.5-0.5-3.8v-1.4h5.3v2.6c0,0.5,0,1.1,0.2,1.6c0.2,0.3,0.5,0.4,0.8,0.4c0.3,0,0.7-0.1,0.8-0.4
			c0.2-0.4,0.3-0.9,0.3-1.3c0.1-0.9-0.1-1.8-0.5-2.5c-0.8-0.8-1.7-1.4-2.7-2c-1-0.6-1.9-1.3-2.8-2c-0.5-0.5-0.9-1.1-1.1-1.8
			c-0.3-0.9-0.5-1.9-0.5-2.9c-0.1-1.3,0.1-2.5,0.6-3.7c0.5-0.8,1.2-1.4,2.1-1.8c1.1-0.5,2.3-0.7,3.5-0.6c1.3,0,2.6,0.2,3.8,0.7
			c0.9,0.3,1.6,1,2,1.8c0.4,1.2,0.6,2.4,0.5,3.7V16.5z"/>
	</g>
</g>
</svg>
