<svg xmlns="http://www.w3.org/2000/svg" viewBox="0 0 248.58 136.6"><defs><style>.cls-1{fill:none;stroke:#fff;stroke-miterlimit:10;}.cls-2{fill:#fff;}</style></defs><title>heavy_equipment</title><g id="图层_2" data-name="图层 2"><g id="Vector_Graphics" data-name="Vector Graphics"><path class="cls-1" d="M109.57,111.85l-.11-.06-1.22-.12a31.31,31.31,0,0,0,1.22-7l.61-.27a1.44,1.44,0,0,0,1.19-1.46V96.46A1.42,1.42,0,0,0,109.9,95h-.13l-1.11.51a30.94,30.94,0,0,0-2.43-6.67l.39-.54a1.44,1.44,0,0,0,.3-1.86l-3.24-5.62a1.42,1.42,0,0,0-1.91-.59l-.12.06-.71,1a31.59,31.59,0,0,0-5.44-4.56l.07-.66a1.44,1.44,0,0,0-.67-1.76L89.27,71a1.42,1.42,0,0,0-2,.44l-.07.11-.12,1.22a31.32,31.32,0,0,0-7-1.22l-.28-.6A1.44,1.44,0,0,0,78.4,69.8H71.92a1.42,1.42,0,0,0-1.48,1.36v.13L71,72.4a31.11,31.11,0,0,0-6.67,2.43l-.54-.38a1.44,1.44,0,0,0-1.86-.3l-5.61,3.24a1.54,1.54,0,0,0-.73.92,1.3,1.3,0,0,0,.13,1l.06.11,1,.71a31.83,31.83,0,0,0-4.56,5.43l-.65-.06a1.3,1.3,0,0,0-.84-.06,1.56,1.56,0,0,0-.93.72l-3.24,5.62a1.43,1.43,0,0,0,.44,2l.11.06,1.22.12a31.34,31.34,0,0,0-1.22,7l-.61.28a1.44,1.44,0,0,0-1.19,1.46v6.48a1.55,1.55,0,0,0,.44,1.09,1.29,1.29,0,0,0,.92.39h.13l1.11-.51a31.11,31.11,0,0,0,2.43,6.67l-.42.6a1.25,1.25,0,0,0-.43.64,1.35,1.35,0,0,0,0,.37,1.61,1.61,0,0,0,.21.78l3.24,5.62a1.53,1.53,0,0,0,.93.72,1.3,1.3,0,0,0,1-.12l.11-.06.72-1A31.22,31.22,0,0,0,61,128.88l-.06.65a1.36,1.36,0,0,0-.06.84,1.57,1.57,0,0,0,.72.93l5.62,3.24a1.56,1.56,0,0,0,1.16.17,1.32,1.32,0,0,0,.8-.61l.06-.11.12-1.21a31.19,31.19,0,0,0,7,1.22l.27.61a1.44,1.44,0,0,0,1.46,1.19H84.6a1.42,1.42,0,0,0,1.48-1.36v-.13l-.51-1.11a30.78,30.78,0,0,0,6.67-2.43l.6.43a1.31,1.31,0,0,0,.64.43,1.54,1.54,0,0,0,1.16-.17l5.62-3.24a1.55,1.55,0,0,0,.72-.92,1.32,1.32,0,0,0-.13-1l-.06-.11-1-.72a31.29,31.29,0,0,0,4.56-5.43l.65.06a1.3,1.3,0,0,0,.85.06,1.56,1.56,0,0,0,.92-.73l3.24-5.61a1.54,1.54,0,0,0,.16-1.16A1.29,1.29,0,0,0,109.57,111.85Zm-31.31,7.4A16.45,16.45,0,1,1,94.71,102.8,16.45,16.45,0,0,1,78.26,119.25Zm0-21.36a4.91,4.91,0,1,0,4.91,4.91A4.91,4.91,0,0,0,78.26,97.88Zm145.65-3h-.13l-1.12.51a31.43,31.43,0,0,0-2.46-6.73l.39-.55a1.45,1.45,0,0,0,.31-1.87l-3.28-5.67a1.44,1.44,0,0,0-1.93-.6l-.11.06-.72,1a31.77,31.77,0,0,0-5.49-4.6l.06-.67a1.45,1.45,0,0,0-.67-1.78l-5.67-3.27a1.44,1.44,0,0,0-2,.44l-.07.11-.12,1.23a31.6,31.6,0,0,0-7.05-1.23l-.28-.61a1.45,1.45,0,0,0-1.47-1.2h-6.55a1.44,1.44,0,0,0-1.49,1.37V71l.51,1.12a31.4,31.4,0,0,0-6.73,2.46l-.55-.39a1.45,1.45,0,0,0-1.87-.31l-5.67,3.27a1.55,1.55,0,0,0-.73.93,1.31,1.31,0,0,0,.12,1l.07.11,1,.72a31.93,31.93,0,0,0-4.61,5.49l-.66-.06a1.31,1.31,0,0,0-.85-.06,1.57,1.57,0,0,0-.94.73l-3.27,5.67a1.44,1.44,0,0,0,.44,2l.11.06,1.23.12a31.38,31.38,0,0,0-1.23,7.06l-.61.28a1.45,1.45,0,0,0-1.2,1.47v6.54a1.56,1.56,0,0,0,.44,1.1,1.3,1.3,0,0,0,.93.39h.13l1.13-.51a31.26,31.26,0,0,0,2.46,6.73l-.43.6a1.28,1.28,0,0,0-.43.65,1.44,1.44,0,0,0,0,.38,1.6,1.6,0,0,0,.21.79l3.27,5.67a1.53,1.53,0,0,0,.93.73,1.31,1.31,0,0,0,1-.12l.12-.07.72-1a31.63,31.63,0,0,0,5.48,4.61l-.06.66a1.31,1.31,0,0,0-.06.85,1.57,1.57,0,0,0,.73.94l5.67,3.27A1.56,1.56,0,0,0,182,135a1.33,1.33,0,0,0,.81-.61l.07-.11.12-1.23a31.5,31.5,0,0,0,7.06,1.23l.28.61a1.45,1.45,0,0,0,1.47,1.2h6.55a1.44,1.44,0,0,0,1.49-1.37v-.13l-.51-1.12a31.11,31.11,0,0,0,6.73-2.46l.6.43a1.32,1.32,0,0,0,.65.43,1.55,1.55,0,0,0,1.17-.17l5.67-3.27a1.57,1.57,0,0,0,.73-.93,1.32,1.32,0,0,0-.13-1l-.07-.11-1-.72a31.75,31.75,0,0,0,4.61-5.49l.66.06a1.3,1.3,0,0,0,.85.06,1.57,1.57,0,0,0,.93-.73l3.27-5.66a1.57,1.57,0,0,0,.16-1.17,1.32,1.32,0,0,0-.61-.81l-.11-.06-1.23-.12a31.44,31.44,0,0,0,1.24-7.05l.61-.28a1.46,1.46,0,0,0,1.2-1.47V96.4A1.44,1.44,0,0,0,223.91,94.91ZM192,119.4a16.6,16.6,0,1,1,16.6-16.6A16.61,16.61,0,0,1,192,119.4Zm0-21.52a4.91,4.91,0,1,0,4.91,4.91A4.91,4.91,0,0,0,192,97.88Zm19.9-40.15a3.07,3.07,0,0,0,3.22-2.89l-.8-28.19a3.07,3.07,0,0,0-3.22-2.89H177.6a1.54,1.54,0,0,1,.38,1.06l11.24,32.09a1.62,1.62,0,0,1-.21.83ZM182.33,28h13.87a3.19,3.19,0,0,1,3.22,3.17V50.88A3.19,3.19,0,0,1,196.19,54h-4.76ZM164.24,72.88l.54-52.63,56.47.73a.92.92,0,0,0,.93-.91V16.81a.92.92,0,0,0-.92-.93l-57.94-3.26-.21,0H159a.92.92,0,0,0-.93.91v3.38a.9.9,0,0,0,0,.22L147.2,32.15,41.26,41.25a3.1,3.1,0,0,0-3,3.22V56.8a3.1,3.1,0,0,0,3,3.22l120,16.09A3.1,3.1,0,0,0,164.24,72.88Zm76.19-10.66A3.17,3.17,0,0,0,237.31,59h-69a1.58,1.58,0,0,0-1.55,1.61V63c0,.89-.35,8.71,1.55,8.71,0,0,11.47-5.47,16.05-6,3.77-.42,12.59-.39,16.62.63,3,.77,8.47,3.71,11.35,5.27,2,1.07,2,2.85,3.84,4.2s4.84,1.07,6.52,3.93c2.68,4.56,1.52,7.42,2.59,11a6.79,6.79,0,0,0,3.48,3.75c.09,2.77.35,6.57,2.07,6.57h8.78a3.17,3.17,0,0,0,3.11-3.22ZM174.62,23.87h-6.37c-.52,0-.94.58-.94,1.3V56.34c0,.72.42,1.3.94,1.3h17.32c.52,0,.94-.59.94-1.3l-11-31.16C175.56,24.46,175.13,23.87,174.62,23.87ZM150,89.37H120.48a1.41,1.41,0,0,0-1.21,1.54v18.52a1.41,1.41,0,0,0,1.21,1.54H150a1.41,1.41,0,0,0,1.21-1.54V90.91A1.41,1.41,0,0,0,150,89.37Zm-21,20.9h-.48V89.82H129Zm12.78,0h-.48V89.82h.48Zm16.22-16.17h0l-.24,0-.2-.12-.12-.07a2.47,2.47,0,0,1-1.15-1.51,2.76,2.76,0,0,1,.29-2.08l3.51-6.09a2.75,2.75,0,0,1,1.66-1.29,2.49,2.49,0,0,1,.64-.08,2.53,2.53,0,0,1,.73.11,35.25,35.25,0,0,1,3.35-4.1h-2.65L96.15,70.51l.7.4a2.67,2.67,0,0,1,1.26,3,35.05,35.05,0,0,1,4.63,3.81l0,0,.14-.2.21-.12.12-.07a2.48,2.48,0,0,1,1.22-.32,2.69,2.69,0,0,1,2.31,1.37l3.53,6.1a2.66,2.66,0,0,1-.43,3.25A34.63,34.63,0,0,1,112,93.36l.05,0,.21-.1h.37a2.62,2.62,0,0,1,2.55,2.67v7a2.66,2.66,0,0,1-2,2.61c-.08,1-.2,2-.37,3h4.47V90.37a2.55,2.55,0,0,1,2.36-2.7H150.9a2.55,2.55,0,0,1,2.35,2.7V108.6h1.83v-6a2.66,2.66,0,0,1,2-2.61A35,35,0,0,1,158.05,94.11Z"/><line class="cls-1" x1="89.56" y1="36.02" x2="125.23" y2="0.35"/><line class="cls-1" x1="60.23" y1="62.02" x2="34.9" y2="87.35"/><line class="cls-1" x1="214.9" y1="45.35" x2="248.23" y2="12.02"/><line class="cls-1" x1="107.56" y1="68.02" x2="129.23" y2="46.35"/><line class="cls-1" x1="168.23" y1="125.35" x2="157.56" y2="136.02"/><line class="cls-1" x1="241.56" y1="74.69" x2="247.9" y2="68.35"/><line class="cls-1" x1="49.56" y1="118.69" x2="32.9" y2="135.35"/><path class="cls-2" d="M13,9.9V31.71H7.37V22.55H5.67v9.16H0V9.9H5.67v7.8h1.7V9.9Z"/><path class="cls-2" d="M15.31,9.9h9.46v4.36H21V18.4h3.54v4.15H21v4.79h4.16v4.36H15.31Z"/><path class="cls-2" d="M26.78,9.9H31a26.45,26.45,0,0,1,5.56.38,4.26,4.26,0,0,1,2.2,1.24,3.92,3.92,0,0,1,.94,1.92,29,29,0,0,1,.19,4.15v7.64a17.71,17.71,0,0,1-.28,3.93,3,3,0,0,1-1,1.55,4,4,0,0,1-1.7.78,15.34,15.34,0,0,1-3,.22H26.78Zm5.67,3.73V28q1.23,0,1.51-.49a7.2,7.2,0,0,0,.28-2.67V16.34a11.34,11.34,0,0,0-.09-1.9.9.9,0,0,0-.43-.61A2.79,2.79,0,0,0,32.45,13.64Z"/><path class="cls-2" d="M55.54,9.9l-3.25,9.85,3.56,12H50l-2.3-9.35v9.35H42V9.9H47.7v8.47L50.22,9.9Z"/><path class="cls-2" d="M68.42,16.5H63.16V14.89a3.17,3.17,0,0,0-.2-1.44.74.74,0,0,0-.67-.31.86.86,0,0,0-.77.42,2.42,2.42,0,0,0-.26,1.27,3.58,3.58,0,0,0,.3,1.64,4.27,4.27,0,0,0,1.6,1.33q3.79,2.25,4.77,3.69a8.46,8.46,0,0,1,1,4.65,8.15,8.15,0,0,1-.55,3.43,4.27,4.27,0,0,1-2.11,1.85,8.33,8.33,0,0,1-3.64.75,8.13,8.13,0,0,1-3.89-.86,4.23,4.23,0,0,1-2.11-2.2,11.27,11.27,0,0,1-.5-3.78V23.9h5.27v2.65a3.49,3.49,0,0,0,.22,1.58.86.86,0,0,0,.79.35.92.92,0,0,0,.84-.44,2.54,2.54,0,0,0,.28-1.32A4.09,4.09,0,0,0,63,24.2a16.79,16.79,0,0,0-2.65-2,25.91,25.91,0,0,1-2.8-2,4.74,4.74,0,0,1-1.14-1.75,7.69,7.69,0,0,1-.45-2.85,7.92,7.92,0,0,1,.64-3.66,4.3,4.3,0,0,1,2.07-1.81,8.24,8.24,0,0,1,3.45-.65,9,9,0,0,1,3.76.71A4,4,0,0,1,67.92,12a9.53,9.53,0,0,1,.5,3.68Z"/></g></g></svg>